<svg xmlns="http://www.w3.org/2000/svg" viewBox="0 0 100 125"><path d="M47.626 10.339c-21.367 0-38.75 17.384-38.75 38.751a38.575 38.575 0 0 0 6.058 20.795l-6.277 16.49a1.08 1.08 0 0 0 1.452 1.372l15.361-6.875c6.524 4.562 14.172 6.969 22.157 6.969 21.368 0 38.751-17.384 38.751-38.751S68.994 10.339 47.626 10.339zM43.9 58.523c-1.525 1.304-3.679 1.956-6.463 1.956-2.843 0-5.078-.643-6.707-1.927s-2.443-3.049-2.443-5.295h4.307c.14.986.414 1.724.823 2.212.748.889 2.029 1.333 3.844 1.333 1.086 0 1.969-.117 2.647-.352 1.287-.449 1.93-1.284 1.93-2.505 0-.713-.315-1.265-.945-1.655-.63-.381-1.63-.718-2.998-1.011l-2.337-.513c-2.298-.508-3.876-1.06-4.735-1.656-1.455-.996-2.183-2.554-2.183-4.673 0-1.934.711-3.54 2.135-4.819s3.515-1.919 6.273-1.919c2.303 0 4.268.603 5.894 1.809s2.479 2.957 2.558 5.251h-4.336c-.08-1.299-.661-2.222-1.742-2.769-.721-.361-1.617-.542-2.688-.542-1.191 0-2.143.234-2.854.703-.71.469-1.066 1.123-1.066 1.963 0 .771.351 1.348 1.051 1.729.45.254 1.406.552 2.869.894l3.789.894c1.661.391 2.905.913 3.734 1.567 1.287 1.016 1.931 2.486 1.931 4.41 0 1.974-.763 3.612-2.288 4.915zm15.413 1.4H55.05l-7.302-21.592h4.819l4.688 16.392 4.732-16.392h4.688l-7.362 21.592z"/></svg>