<svg xmlns="http://www.w3.org/2000/svg" xmlns:xlink="http://www.w3.org/1999/xlink" version="1.1" x="0px" y="0px" viewBox="0 0 70 87.5" style="enable-background:new 0 0 70 70;" xml:space="preserve"><g><path d="M32.8099976,38.4498749v19.2999878c0,1.2399902-1.0100098,2.25-2.25,2.25H17.6199951   c-1.2399902,0-2.25-1.0100098-2.25-2.25V38.4498749c0-0.5500488,0.4500122-1,1-1h15.4400024   C32.3599854,37.4498749,32.8099976,37.899826,32.8099976,38.4498749z"/><path d="M54.6300049,38.4498749v19.2999878c0,1.2399902-1.0100098,2.25-2.25,2.25H38.3500366   c-1.2400513,0-2.25-1.0100098-2.25-2.25V38.4498749c0-0.5500488,0.4499512-1,1-1h16.5299683   C54.1799927,37.4498749,54.6300049,37.899826,54.6300049,38.4498749z"/><path d="M50.3599854,10.9998617c0-0.3900146-0.2299805-0.7399902-0.5699463-0.9000244   c-0.3500366-0.1699829-0.7700195-0.1199951-1.0700073,0.1300049l-7.9800415,6.5200186   c-0.2299805,0.1900024-0.3599854,0.4799805-0.3599854,0.7799683v3.5200195h9.9799805V10.9998617z"/><path d="M52.0700073,24.0498486v11.4000263H38.6600342V24.0498486c0-0.5499878,0.4499512-1,1-1h11.4099731   C51.6300049,23.0498486,52.0700073,23.4998608,52.0700073,24.0498486z"/></g></svg>
