<svg xmlns="http://www.w3.org/2000/svg" xmlns:xlink="http://www.w3.org/1999/xlink" version="1.1" x="0px" y="0px" viewBox="0 0 100 125" enable-background="new 0 0 100 100" xml:space="preserve"><path d="M47.626,10.339c-21.367,0-38.75,17.384-38.75,38.751c0,7.399,2.093,14.577,6.058,20.795l-6.277,16.49  c-0.156,0.409-0.05,0.87,0.268,1.17c0.205,0.194,0.472,0.296,0.742,0.296c0.149,0,0.3-0.03,0.442-0.094l15.361-6.875  c6.524,4.562,14.172,6.969,22.157,6.969c21.368,0,38.751-17.384,38.751-38.751S68.994,10.339,47.626,10.339z M43.9,58.523  c-1.525,1.304-3.679,1.956-6.463,1.956c-2.843,0-5.078-0.643-6.707-1.927s-2.443-3.049-2.443-5.295h4.307  c0.14,0.986,0.414,1.724,0.823,2.212c0.748,0.889,2.029,1.333,3.844,1.333c1.086,0,1.969-0.117,2.647-0.352  c1.287-0.449,1.93-1.284,1.93-2.505c0-0.713-0.315-1.265-0.945-1.655c-0.63-0.381-1.63-0.718-2.998-1.011l-2.337-0.513  c-2.298-0.508-3.876-1.06-4.735-1.656c-1.455-0.996-2.183-2.554-2.183-4.673c0-1.934,0.711-3.54,2.135-4.819  s3.515-1.919,6.273-1.919c2.303,0,4.268,0.603,5.894,1.809s2.479,2.957,2.558,5.251h-4.336c-0.08-1.299-0.661-2.222-1.742-2.769  c-0.721-0.361-1.617-0.542-2.688-0.542c-1.191,0-2.143,0.234-2.854,0.703c-0.71,0.469-1.066,1.123-1.066,1.963  c0,0.771,0.351,1.348,1.051,1.729c0.45,0.254,1.406,0.552,2.869,0.894l3.789,0.894c1.661,0.391,2.905,0.913,3.734,1.567  c1.287,1.016,1.931,2.486,1.931,4.41C46.188,55.582,45.425,57.22,43.9,58.523z M59.313,59.923H55.05l-7.302-21.592h4.819  l4.688,16.392l4.732-16.392h4.688L59.313,59.923z"/></svg>
