<svg xmlns="http://www.w3.org/2000/svg" viewBox="0 0 100 125"><path d="M89.989 68.669h-4.105V29.17a6.585 6.585 0 0 0-6.576-6.576H20.694a6.585 6.585 0 0 0-6.576 6.576v39.499h-4.107c-1.759 0-2.515 1.267-1.68 2.814l1.674 3.108c.834 1.55 2.956 2.813 4.713 2.813h70.564c1.757 0 3.878-1.269 4.712-2.813l1.673-3.108c.837-1.547.084-2.814-1.678-2.814zM20.881 29.361H79.12v36.256H20.881V29.361zm50.585 45.521a1.844 1.844 0 0 1-1.846-1.847 1.846 1.846 0 1 1 3.693 0 1.842 1.842 0 0 1-1.847 1.847zm6.692 0a1.844 1.844 0 0 1-1.845-1.847c0-1.02.825-1.848 1.845-1.848a1.847 1.847 0 1 1 0 3.695zM45.826 55.623a2.356 2.356 0 0 0 0 4.71 2.355 2.355 0 0 0 0-4.71zm13.13-15.185H41.868l-1.344-3.613a1.276 1.276 0 1 0-2.393.885l4.53 12.195c1.151 3.104 2.024 3.386 4.01 3.386h9.51c2.123 0 2.439-1.557 3.008-3.463l1.761-5.927c.573-1.904 1.086-3.463-1.994-3.463zm-3.435 15.185c-1.297 0-2.352 1.057-2.352 2.355s1.055 2.355 2.352 2.355c1.299 0 2.354-1.057 2.354-2.355s-1.055-2.355-2.354-2.355z"/></svg>