<svg xmlns="http://www.w3.org/2000/svg" xmlns:xlink="http://www.w3.org/1999/xlink" version="1.1" x="0px" y="0px" viewBox="0 0 100 125" enable-background="new 0 0 100 100" xml:space="preserve"><path d="M89.989,68.669h-4.105V29.17c0-3.625-2.952-6.576-6.576-6.576H20.694c-3.625,0-6.576,2.951-6.576,6.576v39.499h-4.107  c-1.759,0-2.515,1.267-1.68,2.814l1.674,3.108c0.834,1.55,2.956,2.813,4.713,2.813h70.564c1.757,0,3.878-1.269,4.712-2.813  l1.673-3.108C92.504,69.936,91.751,68.669,89.989,68.669z M20.881,29.361H79.12v36.256H20.881V29.361z M71.466,74.882  c-1.021,0-1.846-0.825-1.846-1.847c0-1.02,0.824-1.848,1.846-1.848s1.847,0.828,1.847,1.848  C73.314,74.057,72.491,74.882,71.466,74.882z M78.158,74.882c-1.02,0-1.845-0.825-1.845-1.847c0-1.02,0.825-1.848,1.845-1.848  c1.021,0,1.85,0.828,1.85,1.848C80.008,74.057,79.18,74.882,78.158,74.882z M45.826,55.623c-1.301,0-2.354,1.057-2.354,2.355  s1.055,2.355,2.354,2.355c1.3,0,2.352-1.057,2.352-2.355S47.128,55.623,45.826,55.623z M58.956,40.438H41.868l-1.344-3.613  c-0.248-0.664-0.983-1.001-1.642-0.754c-0.66,0.247-0.996,0.981-0.751,1.639c0,0,0,0,4.53,12.195  c1.151,3.104,2.024,3.386,4.01,3.386h9.51c2.123,0,2.439-1.557,3.008-3.463l1.761-5.927C61.523,41.997,62.036,40.438,58.956,40.438z   M55.521,55.623c-1.297,0-2.352,1.057-2.352,2.355s1.055,2.355,2.352,2.355c1.299,0,2.354-1.057,2.354-2.355  S56.82,55.623,55.521,55.623z"/></svg>
